<svg width="26" height="26" viewBox="0 0 26 26" fill="none" xmlns="http://www.w3.org/2000/svg">
<path d="M13 2.60001C7.25658 2.60001 2.59998 7.25661 2.59998 13C2.59998 17.8733 5.95571 21.9509 10.4797 23.0793C10.4312 22.9389 10.4 22.776 10.4 22.5741V20.7965C9.97791 20.7965 9.27071 20.7965 9.09304 20.7965C8.38151 20.7965 7.74884 20.4906 7.44204 19.9221C7.10144 19.2903 7.04251 18.3239 6.19838 17.7329C5.94791 17.5361 6.13858 17.3117 6.42718 17.342C6.96018 17.4928 7.40218 17.8585 7.81818 18.4011C8.23244 18.9445 8.42744 19.0675 9.20138 19.0675C9.57664 19.0675 10.1382 19.0459 10.6669 18.9627C10.9512 18.2407 11.4426 17.576 12.0432 17.2623C8.57998 16.9061 6.92724 15.1831 6.92724 12.844C6.92724 11.8369 7.35624 10.8628 8.08511 10.0421C7.84591 9.22741 7.54518 7.56601 8.17698 6.93334C9.73524 6.93334 10.6773 7.94387 10.9035 8.21687C11.68 7.95081 12.5328 7.80001 13.429 7.80001C14.3268 7.80001 15.1831 7.95081 15.9614 8.21861C16.185 7.94734 17.1279 6.93334 18.6896 6.93334C19.324 7.56687 19.0198 9.23521 18.778 10.0481C19.5026 10.8671 19.929 11.8387 19.929 12.844C19.929 15.1814 18.2788 16.9035 14.8208 17.2614C15.7724 17.758 16.4666 19.1533 16.4666 20.2046V22.5741C16.4666 22.6642 16.4467 22.7292 16.4363 22.8063C20.4888 21.3859 23.4 17.5379 23.4 13C23.4 7.25661 18.7434 2.60001 13 2.60001Z" fill="#A4A4A4"/>
</svg>
